<?xml version="1.0" encoding="UTF-8" standalone="no" ?>
<!DOCTYPE svg PUBLIC "-//W3C//DTD SVG 1.1//EN" "http://www.w3.org/Graphics/SVG/1.1/DTD/svg11.dtd">
<svg xmlns="http://www.w3.org/2000/svg" xmlns:xlink="http://www.w3.org/1999/xlink" version="1.1" width="1080" height="1080" viewBox="0 0 1080 1080" xml:space="preserve">
<desc>Created with Fabric.js 5.2.4</desc>
<defs>
</defs>
<rect x="0" y="0" width="100%" height="100%" fill="transparent"></rect>
<g transform="matrix(1 0 0 1 540 540)" id="3f20595f-c096-4a81-8155-7bba63cddb1b"  >
<rect style="stroke: none; stroke-width: 1; stroke-dasharray: none; stroke-linecap: butt; stroke-dashoffset: 0; stroke-linejoin: miter; stroke-miterlimit: 4; fill: rgb(255,255,255); fill-rule: nonzero; opacity: 1; visibility: hidden;" vector-effect="non-scaling-stroke"  x="-540" y="-540" rx="0" ry="0" width="1080" height="1080" />
</g>
<g transform="matrix(1 0 0 1 540 540)" id="98b54c36-2418-4643-b747-858b7d298bda"  >
</g>
<g transform="matrix(1 0 0 1 540 540)" id="02f6567b-cad2-49db-be24-5549210364a7"  >
<path style="stroke: rgb(255,255,255); stroke-width: 0; stroke-dasharray: none; stroke-linecap: butt; stroke-dashoffset: 0; stroke-linejoin: miter; stroke-miterlimit: 4; fill: rgb(255,255,255); fill-rule: nonzero; opacity: 1;" vector-effect="non-scaling-stroke"  transform=" translate(-512, -512)" d="M 1004.48 771.664 L 913.712 590.2239999999999 C 906.3679999999999 575.568 889.4879999999999 568.8639999999999 874.528 574.656 L 695.904 643.28 C 679.536 649.568 671.216 668.288 677.328 685.136 C 683.4399999999999 701.9839999999999 701.68 710.496 718.016 704.24 L 838.8 657.856 C 779.76 794.72 660.7199999999999 875.12 511.96799999999996 887.36 C 346.43199999999996 887.36 219.00799999999998 780.08 153.31199999999995 608.192 C 147.05599999999995 591.872 132.15999999999997 580.864 115.61599999999996 585.328 C 99.00799999999995 589.632 88.97599999999996 606.896 93.19999999999996 623.856 C 141.92 819.184 311.344 955.632 505.264 955.632 C 675.808 955.632 826.624 850.784 894 693.0719999999999 L 948.24 801.4879999999998 C 953.84 812.7039999999998 964.912 819.1199999999998 976.4 819.1199999999998 C 981.264 819.1199999999998 986.2239999999999 817.9839999999998 990.848 815.5039999999998 C 1006.368 807.296 1012.48 787.648 1004.48 771.664 z M 132.928 432.368 C 135.76 432.368 138.672 431.984 141.52 431.18399999999997 L 325.472 379.712 C 342.656 374.912 352.736 356.88 348 339.456 C 343.264 322.03200000000004 325.472 311.744 308.288 316.59200000000004 L 186.30400000000003 350.73600000000005 C 251.52 212.32 364.032 136.624 511.984 136.624 C 672.096 136.624 803.52 254.88 853.232 409.63199999999995 C 858.592 426.28799999999995 879.12 428.4 891.216 419.85599999999994 C 905.184 409.8879999999999 916.832 397.0559999999999 911.84 380.3039999999999 C 856.256 193.728 692.848 68.368 505.264 68.368 C 342.448 68.368 198.096 162.768 126.38400000000001 309.584 L 77.44 205.392 C 69.75999999999999 189.024 50.432 182.128 34.4 189.92 C 18.304 197.696 11.488 217.21599999999998 19.136 233.51999999999998 L 103.776 413.69599999999997 C 109.232 425.344 120.736 432.368 132.928 432.368 z" stroke-linecap="round" />
</g>
</svg>