<?xml version="1.0" encoding="UTF-8" standalone="no" ?>
<!DOCTYPE svg PUBLIC "-//W3C//DTD SVG 1.1//EN" "http://www.w3.org/Graphics/SVG/1.1/DTD/svg11.dtd">
<svg xmlns="http://www.w3.org/2000/svg" xmlns:xlink="http://www.w3.org/1999/xlink" version="1.1" width="1080" height="1080" viewBox="0 0 1080 1080" xml:space="preserve">
<desc>Created with Fabric.js 5.2.4</desc>
<defs>
</defs>
<g transform="matrix(1 0 0 1 540 540)" id="3f20595f-c096-4a81-8155-7bba63cddb1b"  >
<rect style="stroke: none; stroke-width: 1; stroke-dasharray: none; stroke-linecap: butt; stroke-dashoffset: 0; stroke-linejoin: miter; stroke-miterlimit: 4; fill: rgb(255,255,255); fill-rule: nonzero; opacity: 1; visibility: hidden;" vector-effect="non-scaling-stroke"  x="-540" y="-540" rx="0" ry="0" width="1080" height="1080" />
</g>
<g transform="matrix(1 0 0 1 540 540)" id="98b54c36-2418-4643-b747-858b7d298bda"  >
</g>
<g transform="matrix(1 0 0 1 540 540)"  >
<g style="" vector-effect="non-scaling-stroke"   >
		<g transform="matrix(1 0 0 1 -56.6 -57.23)"  >
<path style="stroke: none; stroke-width: 1; stroke-dasharray: none; stroke-linecap: butt; stroke-dashoffset: 0; stroke-linejoin: miter; stroke-miterlimit: 4; fill: rgb(255,255,255); fill-rule: nonzero; opacity: 1;" vector-effect="non-scaling-stroke"  transform=" translate(-454.96, -454.77)" d="M 368.827141 909.543724 C 359.204035942741 909.432926131115 349.9406873360843 905.8700997439394 342.723518 899.503869 L 336.699605 893.479956 C 237.84758718393738 794.8175061636738 198.51867241961307 651.2478751209119 233.28909800000008 515.981405 L 131.886561 335.264013 L 108.794895 358.35568 C 101.3802425631104 365.9222877927875 91.27612112065655 370.25262539979815 80.6833 370.403506 C 70.09047922743358 370.25262513717183 59.986358192093796 365.9222875505976 52.571706000000006 358.35568 L 12.412286000000009 318.19626 C 4.7475452847241275 310.64800077878823 0.4316107152961628 300.34020373446765 0.4316107152961628 289.582673 C 0.4316107152961628 278.82514226553235 4.747545284724128 268.51734522121177 12.412286000000009 260.969086 L 261.400692 11.98068 C 268.94895122121176 4.315939284724121 279.25674826553234 0.000004715296153534609 290.014279 0.000004715296153534609 C 300.77180973446764 0.000004715296153534609 311.0796067787882 4.31593928472412 318.627866 11.980679999999996 L 358.787286 52.1401 C 366.45202671527585 59.68835922121177 370.76796128470386 69.99615626553233 370.76796128470386 80.75368699999999 C 370.76796128470386 91.51121773446764 366.45202671527585 101.81901477878822 358.787286 109.367274 L 335.69562 132.45894099999998 L 516.413011 233.86147699999998 C 651.5014853932269 198.8356120345114 795.0435707746566 237.77522037366845 893.911562 336.26799900000003 L 899.935475 342.29191199999997 C 913.4191543515983 358.1525581855266 912.547495043811 381.68735949578485 897.927504 396.50712899999996 L 396.938736 897.495898 C 389.5240835631104 905.0625057927875 379.4199621206566 909.3928433997982 368.827141 909.543724 z M 290.51627199999996 454.738289 L 303.56808299999994 459.758216 C 319.21756333323617 469.85887565628497 325.867974021282 489.39445725941994 319.6318509999999 506.945535 C 282.4843869999999 610.356042 301.56011199999995 725.814376 369.8311269999999 811.153144 L 811.5847509999999 370.403506 C 727.2499679999999 302.13249099999996 610.7876489999999 283.056767 507.3771409999999 320.204231 C 496.46759008095455 324.25189203089485 484.33873802527825 323.3686227038016 474.1307124006809 317.78309910042896 C 463.9226867760836 312.19757549705633 456.6391936359022 302.4589952838221 454.1659099999999 291.088651 L 249.352866 176.634303 C 241.19094126270892 172.22876567768694 234.80554770722551 165.13388394937206 231.281127 156.55459299999998 L 155.982213 231.85350599999998 C 164.56150432194124 235.3779265134403 171.65638642706153 241.76332009004628 176.061924 249.925245 z" stroke-linecap="round" />
</g>
		<g transform="matrix(1 0 0 1 267.62 268.12)"  >
<path style="stroke: none; stroke-width: 1; stroke-dasharray: none; stroke-linecap: butt; stroke-dashoffset: 0; stroke-linejoin: miter; stroke-miterlimit: 4; fill: rgb(255,255,255); fill-rule: nonzero; opacity: 1;" vector-effect="non-scaling-stroke"  transform=" translate(-779.18, -780.12)" d="M 983.266273 1023.998072 C 975.0304950767284 1024.0787638127108 966.9690537137997 1021.6252818864539 960.1746059999999 1016.9701739999999 L 552.556489 726.818362 C 542.8980456706241 719.9539510377637 536.7640578439706 709.1745592147017 535.7960510902856 697.3648755470476 C 534.8280443366006 685.5551918793935 539.1248384530085 673.92081802199 547.536562 665.575246 L 665.002866 548.108941 C 673.348438160758 539.6972175594425 684.9828121080878 535.4004236138227 696.792495782146 536.3684305608655 C 708.6021794562043 537.3364375079083 719.3815711968246 543.4704255303674 726.245982 553.128869 L 1015.393809 960.746985 C 1024.0408848579918 973.0499440765333 1025.090021892942 989.1529130643186 1018.1123883598984 1002.473849713491 C 1011.1347548268548 1015.7947863626633 997.2997093622298 1024.1012787470238 982.262287 1023.998072 z M 637.895258 688.666912 L 812.588736 813.161116 L 688.0945330000001 638.467637 z" stroke-linecap="round" />
</g>
</g>
</g>
</svg>